<svg width="773" height="30" viewBox="0 0 773 30" fill="none" xmlns="http://www.w3.org/2000/svg">
<path d="M242.613 25.541C242.74 25.4928 242.825 25.4101 242.973 25.4066C243.61 25.3928 244.267 25.3997 245.116 25.3997C243.822 25.2137 240.958 25.2309 239.961 25.3963C238.837 25.5824 238.731 25.5755 237.84 25.3377C237.691 25.2964 237.203 25.2929 236.927 25.2584C236.864 25.2516 237.076 25.1792 237.14 25.1551C234.339 25.0965 231.561 25.0138 228.782 24.9897C227.042 24.9759 225.494 25.0965 223.988 25.3101C222.927 25.4618 221.081 25.4445 219.596 25.4962C218.981 25.5169 218.366 25.5238 217.751 25.5376C217.772 25.572 217.793 25.6065 217.815 25.6409C218.578 25.6272 219.342 25.6099 220.084 25.603C220.7 25.5996 221.315 25.603 221.909 25.6306C222.057 25.6375 222.206 25.7822 222.121 25.7891C221.654 25.8339 221.103 25.8752 220.572 25.889C218.366 25.9373 216.139 25.9752 213.911 26.0165C213.911 26.0579 213.911 26.0958 213.911 26.1371C224.178 26.2819 234.446 26.4231 244.797 26.5678C244.819 26.5368 244.819 26.5093 244.84 26.4852C244.925 26.3818 248.467 25.8442 249.019 25.858C251.183 25.9132 253.24 25.9614 255.468 25.7994C256.931 25.6926 258.862 25.7788 260.58 25.8304C259.392 25.8477 258.204 25.8615 256.846 25.8821C257.759 26.1854 258.989 26.1027 260.134 26.0923C260.919 26.0854 261.725 26.0992 262.51 26.1165C264.101 26.1509 265.671 26.2026 267.262 26.2267C269.701 26.2646 272.141 26.3129 274.58 26.2956C275.79 26.2853 276.723 26.2887 277.529 26.492C276.935 26.5058 276.426 26.5093 275.917 26.5299C273.032 26.6402 270.338 26.7332 267.241 26.5472C264.822 26.4025 261.874 26.5196 259.159 26.5472C262.553 26.6161 265.947 26.6816 269.341 26.7505C269.341 26.7918 269.341 26.8332 269.341 26.8745C267.135 26.909 264.929 26.94 262.722 26.9744C262.744 27.0089 262.744 27.0434 262.765 27.0744C263.232 27.1088 263.677 27.1433 264.144 27.1743C264.165 27.1984 264.186 27.2225 264.207 27.2432C263.062 27.2777 261.916 27.3397 260.771 27.3431C259.562 27.3466 258.353 27.2984 257.143 27.2708C257.122 27.3087 257.101 27.3466 257.08 27.3845C260.792 27.4224 264.525 27.4637 268.238 27.5016C268.238 27.5327 268.238 27.5602 268.259 27.5912C265.332 27.8221 262.192 27.6636 259.116 27.6808C258.989 27.7532 258.883 27.8256 258.713 27.9255C263.147 28.0116 267.644 28.0978 272.353 28.1874C272.141 28.2735 271.992 28.3286 271.823 28.3976C274.135 28.5113 276.214 28.4423 278.293 28.3493C278.293 28.3114 278.293 28.277 278.293 28.239C276.468 28.2046 274.644 28.1667 272.48 28.1253C273.435 27.9151 273.923 27.7808 275.323 27.9255C275.938 27.991 277.084 27.8945 278.081 27.8669C278.823 27.9117 279.756 28.0047 280.69 28.0151C284.869 28.0564 289.048 28.0564 293.227 28.1047C296.79 28.146 300.333 28.2356 303.876 28.2907C304.936 28.308 306.23 28.146 306.909 28.5044C303.769 28.4561 300.757 28.401 297.766 28.3631C295.263 28.3286 292.76 28.3045 290.257 28.2942C288.772 28.2873 287.266 28.308 285.781 28.3286C285.272 28.3355 284.805 28.3872 284.296 28.401C283.914 28.4113 283.257 28.4217 283.172 28.3941C282.196 28.0357 280.584 28.3114 279.29 28.2149C279.693 28.6629 281.623 28.5733 283.066 28.6181C284.975 28.6767 286.926 28.7111 288.814 28.8042C279.481 28.6112 269.998 28.749 260.813 28.2804C260.75 28.3114 260.707 28.3424 260.644 28.3734C260.877 28.4251 261.11 28.4768 261.344 28.5285C261.28 28.5457 261.237 28.5595 261.174 28.5767C260.474 28.494 259.816 28.401 259.095 28.3286C258.48 28.2701 257.483 28.1632 257.165 28.2011C255.213 28.4458 253.007 28.3321 250.928 28.3769C248.807 28.4217 246.664 28.4561 244.543 28.4734C242.358 28.494 240.152 28.4871 237.946 28.4975C237.5 28.5009 237.076 28.5285 236.63 28.5457C236.63 28.5733 236.609 28.5974 236.609 28.625C238.518 28.6904 240.428 28.7594 242.337 28.8248C242.337 28.8386 242.316 28.8524 242.316 28.8662C240.576 28.8937 238.837 28.942 237.118 28.942C234.976 28.942 232.812 28.9316 230.712 28.8662C229.291 28.8214 227.933 28.5698 226.66 28.594C225.324 28.6215 224.094 28.7249 222.587 28.6801C220.89 28.6284 218.981 28.563 217.412 28.6491C214.781 28.7904 212.193 28.7387 209.584 28.7525C207.144 28.7628 204.726 28.7077 202.287 28.7042C200.887 28.7008 199.465 28.7421 198.065 28.7559C197.471 28.7628 196.814 28.7904 196.326 28.7525C193.271 28.5182 190.089 28.6319 186.971 28.6284C185.486 28.625 184.001 28.6767 182.495 28.6836C182.113 28.6836 181.71 28.5664 181.35 28.5733C180.246 28.594 179.186 28.6525 178.104 28.6904C177.383 28.718 176.64 28.7697 175.94 28.7525C174.073 28.7111 172.249 28.6422 170.064 28.5733C170.319 28.7215 170.446 28.78 170.616 28.8834C167.116 28.7835 163.828 28.6905 160.412 28.594C160.54 28.6629 160.667 28.7318 160.837 28.8317C160.306 28.8386 159.84 28.8524 159.394 28.8524C155.915 28.8352 152.458 28.8248 149 28.7938C147.324 28.78 145.669 28.7077 143.994 28.7042C143.272 28.7042 142.509 28.7973 141.872 28.8765C141.703 28.8972 141.809 29.0729 141.978 29.0833C143.251 29.1694 144.566 29.2418 145.881 29.3003C147.006 29.3486 148.215 29.2728 148.979 29.5588C149.254 29.6656 151.418 29.6587 152.691 29.638C155.024 29.5967 157.336 29.5036 159.649 29.4278C159.924 29.4175 160.179 29.4003 160.837 29.3624C159.034 29.2659 157.633 29.1866 156.212 29.1108C156.233 29.0867 156.255 29.066 156.276 29.0419C158.164 29.0591 160.052 29.0764 162.237 29.097C161.621 29.3762 162.003 29.4657 163.403 29.4692C164.316 29.4692 165.206 29.5657 166.119 29.6001C166.797 29.6277 167.625 29.8069 168.176 29.5588C168.219 29.5381 169.025 29.5416 169.046 29.5519C169.385 29.8103 170.552 29.7104 171.401 29.7173C173.989 29.7414 176.577 29.7759 179.165 29.769C181.265 29.7621 183.365 29.7035 185.465 29.6656C185.486 29.6966 185.507 29.7276 185.528 29.7621C182.792 29.8069 180.056 29.8689 177.298 29.893C172.27 29.9413 167.243 29.9964 162.215 29.9998C158.673 30.0033 155.109 29.9482 151.545 29.8896C145.521 29.7896 139.518 29.6725 133.514 29.5553C130.778 29.5036 128.063 29.4313 125.326 29.3762C119.662 29.2624 113.998 29.1556 108.313 29.0075C110.223 29.0075 112.153 28.9937 114.062 29.0109C118.708 29.0454 123.353 29.0936 127.999 29.1384C128.041 29.0936 128.084 29.0523 128.126 29.0075C127.575 28.9799 127.044 28.9385 126.493 28.9282C119.832 28.8076 113.15 28.7042 106.51 28.563C103.625 28.5009 100.762 28.3734 97.919 28.2459C96.5401 28.1839 95.2674 28.0461 93.9097 27.96C93.4006 27.9289 92.7855 27.9565 92.0006 27.9565C92.34 28.0495 92.4885 28.0874 92.7218 28.1529C89.6884 28.1185 86.7398 28.084 83.3881 28.0426C83.9397 27.9565 84.1942 27.9151 84.5973 27.8531C82.7729 27.6119 80.6516 27.6257 78.6364 27.6464C74.8605 27.6843 71.1058 27.7601 67.3511 27.8152C67.1602 27.8187 66.9481 27.798 66.2905 27.767C67.2875 27.7084 67.7966 27.6774 68.3481 27.6464C68.1784 27.3776 67.2875 27.4155 66.2693 27.4638C65.3147 27.5086 64.3389 27.5258 63.3631 27.5465C60.563 27.5981 57.7841 27.6464 54.984 27.6981L55.0264 27.7015C56.978 27.6257 58.9296 27.5499 60.9024 27.4775C61.8782 27.4431 62.854 27.4155 63.8086 27.3363C61.2842 27.3052 58.7811 27.0675 56.384 27.3569C51.696 26.9572 46.6685 27.1433 41.8532 27.0089C41.8107 27.0503 41.7683 27.0882 41.7471 27.1295C43.2744 27.1812 44.823 27.2329 46.3291 27.2846C46.1594 27.2949 45.8624 27.3363 45.5866 27.3328C41.2168 27.2811 36.8469 27.2225 32.4982 27.164C31.0558 27.1433 30.7164 26.9745 30.7376 26.8056C28.2344 26.4541 25.8586 26.1199 23.3767 25.7719C25.0525 25.4376 27.0677 25.7753 28.8496 25.6892C28.5738 25.3997 27.7253 25.2619 26.0495 25.2619C25.498 25.2619 24.9676 25.1551 24.2888 25.0827C24.904 24.9036 25.5404 24.7588 25.8798 24.59C25.9859 24.5383 25.3283 24.4005 24.8404 24.3557C23.7585 24.2592 22.5494 24.1972 21.4039 24.1214C21.3614 24.0835 21.319 24.0421 21.2766 24.0042C22.1887 23.9387 23.1221 23.8802 23.9918 23.8009C24.5858 23.7458 25.0949 23.6562 25.8798 23.5459C23.9494 23.4115 22.2524 23.2909 20.5341 23.1703C20.5554 23.129 20.5554 23.0876 20.5766 23.0497C21.8706 22.9946 23.1858 22.9429 24.4797 22.8878C18.8371 22.6052 13.9157 22.0091 7.93364 21.8678C8.0185 21.8196 8.12456 21.7748 8.20941 21.7265C10.8186 21.8299 13.4066 21.9505 16.0158 22.0367C18.328 22.1125 20.6826 22.1676 23.0373 22.2055C23.4615 22.2124 23.9494 22.0952 24.4373 22.0504C24.8616 22.0125 25.3283 21.9712 25.7949 21.9678C26.7495 21.9643 27.7041 21.985 28.3829 21.9919C28.8496 21.8506 29.1678 21.7541 29.6345 21.6128C27.4496 21.5129 25.2434 21.413 22.613 21.2924C25.0101 21.1925 26.9404 21.1132 29.2951 21.0167C28.6163 20.9306 28.1284 20.8651 27.3647 20.7686C29.9527 20.7686 32.2013 20.7686 34.4286 20.7686C34.471 20.7479 34.4923 20.7307 34.5347 20.71C33.7074 20.6584 32.8801 20.6067 32.1164 20.5619C32.3285 20.5274 32.6467 20.4792 32.9437 20.4309C32.6467 20.3827 32.3922 20.3034 32.074 20.2931C30.8436 20.2483 29.5709 20.2276 28.3405 20.1966C27.6829 20.1794 27.0041 20.1622 26.3465 20.0726C27.6829 20.0416 29.0193 20.0071 30.3345 19.9761C30.3345 19.9313 30.3345 19.8865 30.3345 19.8417C28.3617 19.8176 26.3677 19.79 24.2464 19.7659C24.3737 19.6901 24.4797 19.6315 24.6707 19.5247C22.6766 19.4868 20.8311 19.4489 18.9856 19.4144C18.9856 19.4006 18.9644 19.3834 18.9644 19.3696C20.3432 19.3283 21.7433 19.2869 23.1221 19.2456C23.1221 19.2249 23.1221 19.2042 23.1221 19.187C21.7857 19.1112 20.4281 19.032 19.0917 18.9561C19.1341 18.9286 19.1765 18.8976 19.2189 18.87C21.0857 18.9217 22.9736 18.9734 24.8404 19.0251C24.8828 18.9906 24.9252 18.9596 24.9676 18.9251C23.5252 18.8424 21.8281 18.8149 20.7038 18.6598C19.7068 18.522 19.3462 18.2429 18.625 18.0017C20.3432 18.0706 21.9978 18.1361 23.6737 18.2015C23.7161 18.1705 23.7797 18.1395 23.8221 18.1085C22.8888 18.0396 21.913 17.9775 21.022 17.8914C20.7038 17.8604 20.5766 17.7605 20.3644 17.695C20.7251 17.6709 21.1069 17.6261 21.4463 17.6295C22.8676 17.6433 24.31 17.6743 25.9222 17.7019C25.8586 17.6123 25.8162 17.5503 25.7101 17.4124C27.2799 17.4469 28.7435 17.4779 30.2072 17.5124C30.2285 17.4882 30.2709 17.4676 30.2921 17.4434C27.5768 17.3297 24.8828 17.216 22.1675 17.1058C22.1887 17.0851 22.21 17.0644 22.2312 17.0403C23.7373 16.9748 25.2222 16.9128 26.9829 16.837C26.6435 16.9059 26.4738 16.9438 26.1556 17.0058C27.0465 17.0403 27.8102 17.0679 28.8284 17.1058C28.489 16.7233 29.6557 16.7543 31.0133 16.8025C31.7346 16.8267 32.5195 16.806 33.2831 16.7543C32.477 16.6888 31.6073 16.6406 30.8648 16.551C30.2285 16.4752 29.7618 16.3546 28.9557 16.2064C26.3041 16.0789 23.1433 15.9239 20.0038 15.7722C20.0462 15.7309 20.0887 15.6896 20.1311 15.6517C24.1403 15.7516 28.1284 15.8515 32.1376 15.9514C32.1588 15.9239 32.18 15.8963 32.2225 15.8687C27.5981 15.6413 22.9736 15.4139 18.3492 15.1865C18.3492 15.1761 18.3704 15.1658 18.3704 15.1555C21.6584 15.2382 24.9464 15.3174 28.2557 15.4001C28.2769 15.3691 28.2981 15.3381 28.3405 15.3071C22.4221 15.0555 16.5037 14.8005 10.5853 14.549C10.6065 14.5214 10.6489 14.4973 10.6701 14.4697C13.6611 14.549 16.6946 14.6041 19.6432 14.7144C24.5646 14.9005 29.486 15.09 34.5559 15.1176C35.8075 15.1244 37.059 15.1003 38.3106 15.0969C40.0925 15.0934 41.8956 15.0969 43.6987 15.0383C29.2739 14.4939 14.8279 13.9494 -7.26143e-07 13.3878C3.26679 13.119 6.0669 13.4016 9.31249 13.3809C8.57003 13.4153 8.25184 13.4326 7.93364 13.4463C14.043 13.8461 20.6614 13.6428 27.1526 14.0046C26.0495 13.7703 26.0495 13.784 23.6524 13.7461C22.5069 13.7289 21.3827 13.6393 20.322 13.5084C21.9554 13.5291 23.61 13.5497 25.2434 13.5739C25.2858 13.5497 25.3071 13.5256 25.3495 13.5049C23.6737 13.4085 21.9978 13.312 20.2372 13.212C20.7675 13.181 21.2342 13.15 21.7645 13.119C20.4493 12.9088 18.9432 12.8778 17.3946 12.9364C15.9309 12.9915 14.3824 12.9812 12.8763 12.9984C12.855 12.9571 12.8126 12.9157 12.7914 12.8744C14.1066 12.8365 15.4218 12.7572 16.737 12.7675C19.3038 12.7882 21.8493 12.8709 24.4161 12.9123C26.6223 12.9467 28.8496 12.9674 31.0558 12.9812C31.4164 12.9846 31.777 12.9295 32.6679 12.864C30.8861 12.7917 29.6133 12.74 28.0011 12.6745C29.4012 12.4678 31.3103 12.7951 31.9891 12.4436C32.9013 12.3609 33.7922 12.2748 34.9165 12.1714C32.8589 11.8889 30.08 12.0853 27.5132 11.8165C32.0316 11.8923 36.1257 11.9647 40.2198 12.0336C40.2622 12.0095 40.3046 11.9853 40.3258 11.9612C38.9258 11.8785 37.5469 11.7614 36.1044 11.7235C33.9831 11.6683 31.7982 11.6787 29.6769 11.6304C29.1678 11.6201 28.7648 11.4823 27.9799 11.3479C32.2225 11.3479 35.956 11.4857 39.647 11.2652C36.5287 11.1032 33.7498 10.6932 30.1224 10.9344C29.9315 10.8345 29.7193 10.7276 29.486 10.6105C34.9802 10.6105 40.4531 10.6105 45.926 10.6105C45.9473 10.5726 45.9685 10.5347 45.9685 10.4933C44.3775 10.4727 42.7865 10.4623 41.2168 10.4244C39.7106 10.39 38.2045 10.3279 36.7408 10.2762C37.2712 10.2487 37.8651 10.2177 38.65 10.1763C38.3318 10.1143 38.0772 10.066 37.6318 9.9799C40.4955 9.91443 43.2108 9.85241 45.9048 9.79039C43.3381 9.47338 40.347 9.56297 37.5681 9.4975C34.7256 9.42858 31.8406 9.40791 28.9557 9.33899C35.4256 9.03577 42.2986 9.29419 48.7262 8.95651C48.7262 8.92894 48.7474 8.90138 48.7474 8.87381C46.0533 8.77388 43.3593 8.67396 40.6864 8.57748C40.6652 8.58437 40.8137 8.54991 41.1531 8.47755C40.241 8.45343 39.4561 8.43275 38.3106 8.40174C39.3712 8.34661 40.1349 8.30526 40.8774 8.26391C40.8561 8.25013 40.8349 8.23979 40.8137 8.22601C38.6076 8.19499 36.4014 8.16743 34.1741 8.13642C34.1741 8.10541 34.1741 8.07439 34.1741 8.04338C37.2287 8.01237 40.3046 7.98136 43.3593 7.95035C43.3805 7.91934 43.3805 7.89177 43.4017 7.86076C42.8714 7.80907 42.3411 7.76083 41.2804 7.66091C43.2532 7.62989 44.7169 7.60577 46.1806 7.58165C46.2018 7.55753 46.2018 7.53341 46.223 7.50584C42.3835 7.38179 38.5439 7.25775 34.7044 7.1337C34.7256 7.10269 34.7468 7.07512 34.768 7.04411C35.6802 7.02688 36.6136 7.00965 37.5257 6.98898C37.5469 6.95107 37.5469 6.91317 37.5681 6.87527C35.362 6.81669 33.1558 6.76156 30.9497 6.70298C32.7528 6.48934 35.1286 6.79601 36.5923 6.43076C36.6984 6.40664 36.4439 6.33773 36.3802 6.28948C39.2652 6.32739 42.1501 6.36873 45.0563 6.40319C46.2018 6.41697 47.3473 6.42387 48.4928 6.42043C49.4474 6.42043 50.1898 6.36873 49.8504 6.18955C47.2412 6.10686 44.7593 6.02761 42.2774 5.94835C46.6473 5.76573 51.3778 6.22057 55.3658 5.61067C43.7199 5.49696 32.074 5.38325 20.4281 5.26954C20.4281 5.22819 20.4281 5.19028 20.4281 5.14893C24.904 5.15927 29.4224 5.31434 33.8983 5.07658C28.2132 4.78713 22.2736 4.74923 16.0794 4.49424C31.0133 4.16345 45.4381 4.19101 59.863 4.37363C59.8842 4.40465 59.8842 4.43222 59.9054 4.46323C57.2538 4.46323 54.6234 4.46323 51.9717 4.46323C51.9717 4.50458 51.9505 4.54592 51.9505 4.58727C54.0506 4.61828 56.1719 4.64585 58.272 4.67686C58.272 4.71132 58.272 4.74922 58.272 4.78368C55.1749 4.81469 52.0566 4.84571 48.4504 4.88361C49.2353 4.93875 49.5747 4.98009 49.9353 4.98353C53.0536 5.01454 56.1931 5.02834 59.3114 5.06624C60.966 5.08691 62.6418 5.13515 64.2752 5.17994C66.3965 5.23852 67.3723 5.14893 67.3935 4.86983C66.2905 4.81125 64.6146 4.87672 64.9116 4.50457C64.9328 4.4839 63.4055 4.42188 62.5146 4.37708C63.5964 4.17723 65.845 4.47356 66.4814 4.06352C65.8662 4.05662 65.3359 4.05317 64.8268 4.04628C64.8056 4.02561 64.7843 4.00838 64.7631 3.98771C65.8874 3.90501 66.9905 3.82231 68.2845 3.72928C67.7117 3.65347 67.2026 3.588 66.3329 3.47084C67.5633 3.39504 68.4118 3.32267 69.2815 3.29511C74.0544 3.14349 78.8273 2.98843 83.6215 2.86783C88.4368 2.74723 93.2521 2.6473 98.0887 2.57149C99.213 2.55426 100.422 2.67487 101.61 2.73C102.289 2.76101 102.968 2.80581 103.668 2.81615C108.186 2.88851 112.81 2.88506 117.223 3.05046C120.744 3.1814 124.075 3.11936 127.511 3.09869C129.866 3.08491 132.22 3.18139 134.575 3.20896C136.124 3.22619 137.693 3.22274 139.263 3.20896C140.324 3.19862 141.384 3.15382 142.148 3.13315C141.066 2.95742 139.857 2.75412 138.584 2.5646C137.587 2.41643 136.505 2.28205 135.699 2.17523C135.699 2.17523 136.251 2.16145 136.76 2.14766C136.972 1.79964 135.975 1.70315 134.299 1.69971C127.023 1.68248 119.747 1.62391 112.471 1.65147C109.544 1.66181 106.638 1.85132 103.71 1.95814C103.18 1.97882 102.649 2.00638 102.056 1.99949C104.304 1.70315 106.913 1.60667 109.607 1.58255C115.314 1.53431 121.02 1.51364 126.705 1.47918C131.838 1.44817 136.972 1.39304 142.106 1.3827C149.382 1.36892 156.679 1.38614 163.955 1.38614C167.243 1.38614 170.552 1.37581 173.84 1.3827C177.022 1.38959 180.183 1.4275 183.365 1.4275C190.089 1.42405 196.835 1.39648 203.56 1.38959C205.257 1.38959 206.975 1.42749 208.672 1.45161C208.672 1.47918 208.651 1.50675 208.651 1.53431C207.399 1.52053 206.147 1.49641 204.896 1.49985C199.126 1.52053 193.356 1.54809 187.586 1.58255C180.607 1.6239 173.628 1.66525 166.67 1.71694C162.767 1.74795 158.885 1.80653 154.6 1.85822C157.23 1.96504 159.585 2.06151 162.534 2.18211C161.579 2.26136 161.134 2.32684 160.646 2.33373C158.588 2.36129 156.53 2.37508 154.473 2.38542C154.091 2.38887 153.688 2.3544 153.306 2.29238C154.091 2.27515 154.855 2.25792 155.639 2.23725C155.639 2.21313 155.639 2.18556 155.639 2.16144C152.648 2.16144 149.657 2.16144 146.666 2.16144C146.645 2.12009 146.645 2.07875 146.624 2.0374C148.66 2.00983 150.697 1.98227 152.712 1.9547C152.712 1.93747 152.691 1.92368 152.691 1.90646C148.363 1.83754 144.057 1.76862 139.709 1.69971C139.39 2.07185 140.048 2.20279 141.957 2.20624C144.863 2.21313 147.769 2.26826 150.676 2.30272C150.676 2.33373 150.676 2.36819 150.676 2.3992C147.388 2.37508 144.1 2.34752 140.642 2.31995C140.875 2.71277 142.403 2.70587 143.569 2.74378C144.991 2.78857 146.454 2.77823 147.876 2.81958C148.936 2.85059 149.912 2.96776 150.973 2.98498C152.373 3.00566 153.794 2.96431 155.215 2.95397C156.87 2.94708 158.503 2.95742 160.158 2.94019C161.282 2.92985 162.406 2.89194 163.509 2.86093C164.867 2.82303 166.225 2.7679 167.604 2.75067C168.113 2.74378 168.643 2.81614 169.407 2.86783C168.537 2.99532 168.007 3.07113 167.073 3.21241C170.488 3.10214 173.183 3.51563 176.237 3.23308C177.213 3.14349 178.762 3.2503 180.056 3.2503C185.401 3.24341 190.747 3.24342 196.071 3.21241C200.314 3.18828 204.535 3.12626 208.778 3.06424C209.817 3.05046 211.133 3.05734 211.536 2.79891C211.578 2.7679 212.151 2.76445 212.49 2.74722C212.787 3.22619 215.736 2.94363 216.563 3.18828C214.611 3.2124 212.575 3.23652 210.517 3.26409C210.517 3.30199 210.517 3.34334 210.517 3.38124C217.857 3.39503 225.218 3.40537 232.558 3.41915C232.579 3.44327 232.6 3.46739 232.621 3.48806C232.452 3.46739 232.261 3.44671 231.773 3.39158C232.579 3.33989 233.173 3.30199 233.915 3.2503C234.424 3.75338 236.63 3.4984 238.094 3.57077C239.515 3.63968 241 3.67069 242.4 3.76717C243.206 3.74994 244.14 3.55008 244.755 3.85331C246.346 3.75683 247.788 4.25991 249.549 3.88777C249.783 3.83608 250.801 3.89121 251.458 3.90844C253.389 3.96358 255.277 4.05662 257.207 4.07385C261.534 4.11175 265.862 4.12553 270.168 4.12553C271.653 4.12553 273.159 4.01871 274.644 4.01526C276.426 4.01182 278.229 4.06351 280.011 4.09797C281.114 4.11864 281.75 4.08418 280.902 3.83264C281.072 3.82919 281.241 3.8223 281.432 3.81885C281.856 3.92222 282.281 4.02216 282.981 4.191C283.575 4.15654 284.529 4.08762 285.505 4.04627C285.866 4.03249 286.438 4.05317 286.693 4.09797C288.411 4.40809 292.781 4.4322 294.648 4.14965C295.093 4.08073 295.772 4.05661 296.451 4.05661C296.133 4.1083 295.815 4.15999 295.475 4.21512C295.602 4.25302 295.687 4.30127 295.772 4.30127C298.275 4.31505 300.8 4.32194 303.303 4.32883C304.088 4.32883 304.873 4.32193 305.636 4.31504C307.142 4.29781 308.648 4.29437 310.112 4.25647C311.936 4.20823 313.676 4.19445 315.246 4.4322C316.349 4.08763 317.982 4.25647 319.425 4.23579C319.467 4.27025 319.509 4.30126 319.552 4.33571C317.537 4.40807 315.437 4.57347 313.506 4.53213C311.003 4.47699 308.585 4.4701 306.082 4.508C303.366 4.54935 300.609 4.49078 297.851 4.50456C295.263 4.51835 292.675 4.55281 290.087 4.60105C287.923 4.6424 285.802 4.72509 283.638 4.77334C283.087 4.78367 282.493 4.69753 281.92 4.69753C279.502 4.70097 277.084 4.71821 274.644 4.73199C274.623 4.76645 274.623 4.8009 274.602 4.83536C274.835 4.87326 275.068 4.91116 275.323 4.95251C274.347 4.96974 273.393 4.98698 272.438 5.00076C272.417 5.02488 272.417 5.05245 272.396 5.07657C272.735 5.10069 273.159 5.1627 273.393 5.14547C275.111 5.01454 276.553 5.20061 278.123 5.2454C278.568 5.25919 279.078 5.19372 279.459 5.09379C278.865 5.06622 278.293 5.0421 277.699 5.01453C277.741 4.97318 277.784 4.93529 277.826 4.89394C278.547 4.92151 279.332 4.92839 279.99 4.98352C281.008 5.06967 281.793 5.11102 282.09 4.81123C282.281 4.81813 282.45 4.82502 282.641 4.83536C283.023 4.98697 283.384 5.13514 283.766 5.28675C283.617 5.30398 283.447 5.32466 283.299 5.34189C284.232 5.36256 285.187 5.38323 286.142 5.40391C286.12 5.44181 286.099 5.47627 286.078 5.51417C284.89 5.50384 283.702 5.5004 282.514 5.46594C282.408 5.46249 282.493 5.25919 282.493 5.09724C282.069 5.13859 281.56 5.15582 281.39 5.20751C280.435 5.52107 278.717 5.48661 277.147 5.51762C273.965 5.57965 270.868 5.80362 267.58 5.71403C266.138 5.67612 264.695 5.62099 263.232 5.58998C262.68 5.57965 262.065 5.60376 261.492 5.62099C260.537 5.64856 259.604 5.68302 258.543 5.71747C259.053 6.0655 257.61 6.05171 256.295 6.0586C255.446 6.06205 254.598 6.0586 253.749 6.0586C253.728 6.08272 253.707 6.11029 253.707 6.13441C253.983 6.15164 254.28 6.17921 254.555 6.17921C258.183 6.15853 261.81 6.13097 265.459 6.11374C268.62 6.09995 271.802 6.1034 274.962 6.08272C275.98 6.07583 277.02 5.97936 278.038 5.9828C280.393 5.9897 282.726 6.04483 285.081 6.05516C287.987 6.06895 290.893 6.04138 293.799 6.06205C295.178 6.07239 296.557 6.1861 297.936 6.18265C301.691 6.16887 305.276 6.32049 308.924 6.4342C309.836 6.46177 310.791 6.45142 311.746 6.45831C311.979 6.46176 312.276 6.45487 312.446 6.47555C314.779 6.77878 317.388 6.72709 320.04 6.67885C321.334 6.65817 322.649 6.70641 323.964 6.72019C324.282 6.72364 324.622 6.70986 324.961 6.62716C324.41 6.62716 323.879 6.63749 323.349 6.62371C322.882 6.61337 322.437 6.57892 322.034 6.54102C321.97 6.53413 322.076 6.41697 322.182 6.41352C322.691 6.3894 323.54 6.34115 323.71 6.3825C325.216 6.7133 326.446 6.46176 327.91 6.37217C329.183 6.29291 330.668 6.32393 332.089 6.36873C331.134 6.38251 330.18 6.39629 329.246 6.41008C329.246 6.44109 329.225 6.4721 329.225 6.49967C329.607 6.52724 330.01 6.55824 330.434 6.58925C330.18 6.62371 329.967 6.65473 329.416 6.73398C332.513 6.73398 335.292 6.73398 337.795 6.73398C337.795 6.85803 337.795 6.96829 337.795 7.10957C337.689 7.1199 337.35 7.14746 337.031 7.17847C338.219 7.47826 339.895 7.49549 341.677 7.48171C343.289 7.47137 344.944 7.51962 346.535 7.47827C348.168 7.43692 349.717 7.31631 351.308 7.24395C351.88 7.21638 352.517 7.22672 353.111 7.21983C353.174 7.25774 353.238 7.29909 353.302 7.33699C352.517 7.38868 351.753 7.44036 350.947 7.49549C351.859 7.49549 352.814 7.51272 353.705 7.4886C354.299 7.47137 354.787 7.37489 355.381 7.34043C356.272 7.28874 356.823 7.0441 358.096 7.20605C358.287 7.23017 358.817 7.17503 359.453 7.08544C358.944 7.05098 358.456 7.01309 357.884 6.97174C360.387 6.58236 362.784 6.88559 365.032 6.86836C365.054 6.84079 365.096 6.81668 365.117 6.78911C363.738 6.72709 362.338 6.66506 360.96 6.60648C361.172 6.52723 361.384 6.44109 361.511 6.3894C364.014 6.50311 366.496 6.61682 369.021 6.73398C368.575 6.796 368.172 6.8408 367.833 6.89593C367.048 7.02687 366.263 7.082 365.096 7.0441C363.484 6.98896 361.808 6.99241 360.175 6.97174C359.857 7.48516 359.857 7.47827 362.381 7.4886C363.845 7.49549 365.329 7.54718 366.793 7.54374C367.43 7.54374 368.023 7.44725 368.66 7.39901C368.914 7.37834 369.275 7.35077 369.487 7.368C371.46 7.49894 373.284 7.42313 375.193 7.30598C376 7.25429 377.06 7.33699 377.994 7.33354C380.56 7.3232 383.212 7.22328 385.673 7.30598C387.921 7.38178 389.958 7.2853 392.079 7.26118C392.461 7.25773 392.843 7.23016 393.224 7.21293C393.224 7.18537 393.224 7.15436 393.203 7.12679C391.421 7.11301 389.618 7.08544 387.836 7.08889C384.103 7.09234 380.369 7.15781 376.678 7.10956C375.109 7.08889 373.603 6.9545 371.927 7.06132C371.015 7.1199 370.039 7.15091 369.105 7.19226C368.999 7.14746 368.872 7.10268 368.766 7.05788C369.424 6.98897 370.039 6.88559 370.76 6.85802C372.754 6.77188 375.024 6.58581 376.784 6.67884C380.136 6.85113 383.382 6.73742 386.648 6.74431C387.476 6.74776 388.303 6.65127 389.152 6.59959C389.109 6.57202 389.046 6.54101 389.003 6.51344C387.03 6.51344 385.058 6.51344 383.064 6.51344C383.064 6.48243 383.064 6.45142 383.064 6.41696C385.609 6.41696 388.133 6.41696 390.87 6.41696C390.615 6.53412 390.467 6.60648 390.106 6.76499C391.527 6.72708 392.652 6.69951 393.224 6.68573C396.173 6.68573 398.613 6.69263 401.073 6.68229C403.852 6.67195 406.631 6.65128 409.389 6.62716C414.119 6.58925 418.871 6.58925 423.559 6.48588C426.274 6.4273 428.82 6.64438 431.429 6.53756C433.211 6.46176 435.332 6.62716 436.817 6.31359C436.944 6.28602 437.453 6.28602 437.644 6.30669C439.469 6.49621 439.469 6.49621 441.526 6.33426C441.908 6.30325 442.332 6.29636 442.736 6.27913C441.463 6.01381 441.463 6.01726 439.66 6.15509C439.257 6.1861 438.726 6.18265 438.26 6.1792C436.223 6.15853 434.187 6.11029 432.15 6.11718C431.111 6.12062 430.114 6.23089 429.074 6.27913C428.396 6.31014 427.674 6.31704 426.889 6.28258C427.271 6.25846 427.653 6.23433 428.056 6.21021C428.056 6.18264 428.056 6.15508 428.035 6.12751C424.514 6.12751 420.992 6.12751 417.216 6.12751C417.556 6.03448 417.768 5.9759 418.213 5.84841C416.771 5.83463 415.54 5.82085 414.331 5.81051C414.331 5.84497 414.331 5.88287 414.31 5.91733C414.968 5.90355 415.647 5.88631 416.304 5.87253C416.304 5.90699 416.325 5.94144 416.325 5.9759C412.804 6.16542 409.261 6.18265 405.57 5.92767C405.719 5.88632 405.91 5.83808 406.27 5.74504C404.679 5.64856 403.173 5.55896 401.688 5.46937C401.688 5.4487 401.71 5.43147 401.71 5.4108C403.81 5.46938 405.91 5.52796 408.01 5.58309C409.728 5.62789 411.446 5.66922 413.165 5.71402C413.228 5.67956 413.313 5.64166 413.377 5.6072C413.122 5.55551 412.889 5.50727 412.465 5.42457C414.098 5.366 415.541 5.28675 417.004 5.27641C417.938 5.26952 418.574 5.44181 419.889 5.38668C422.583 5.27297 425.447 5.19027 428.162 5.22472C430.008 5.24884 431.79 5.36255 433.656 5.26262C434.505 5.21783 435.353 5.18338 436.202 5.14203C436.202 5.11446 436.181 5.09034 436.181 5.06277C428.735 4.96629 421.31 4.86636 413.674 4.76643C415.71 4.48388 421.12 4.4322 424.28 4.64239C424.217 4.5528 424.132 4.46665 424.047 4.3495C427.25 4.64928 429.053 4.66996 431.068 4.3874C426.826 4.13586 422.52 4.34261 418.553 4.17032C418.574 4.14275 418.595 4.11519 418.595 4.08417C420.25 4.10485 421.883 4.13242 423.538 4.14965C426.232 4.17721 428.926 4.19099 431.62 4.22545C431.896 4.2289 432.087 4.33916 432.426 4.37017C432.935 4.42186 433.529 4.48732 434.081 4.48732C436.478 4.47354 438.854 4.43909 441.272 4.36328C440.105 4.36328 438.917 4.36328 437.75 4.36328C437.75 4.33227 437.75 4.30126 437.772 4.27025C442.799 4.27025 447.848 4.27025 453.024 4.27025C452.6 4.53557 451.815 4.52867 450.775 4.47699C449.948 4.43564 449.057 4.43908 448.039 4.42185C448.908 4.72163 449.757 4.77333 451.263 4.6734C451.666 4.64583 452.197 4.6734 452.663 4.6734C454.636 4.6734 456.609 4.66306 458.582 4.6734C459.579 4.67684 460.554 4.71819 461.53 4.73887C461.53 4.77333 461.551 4.81123 461.551 4.84568C459.133 4.88014 456.715 4.91461 454.297 4.94562C454.297 4.96974 454.275 4.99386 454.275 5.02142C457.797 5.02142 461.318 5.02142 464.839 5.02142C464.839 5.05588 464.839 5.09033 464.861 5.12479C462.761 5.16959 460.682 5.21439 458.582 5.25918C458.603 5.29709 458.624 5.33499 458.645 5.37634C461.424 5.34533 464.203 5.31775 467.321 5.2833C466.791 5.17303 466.621 5.13858 466.197 5.05243C469.124 4.96973 471.712 4.89737 474.3 4.82156C474.279 4.7871 474.279 4.7561 474.258 4.72164C472.879 4.66306 471.585 4.50111 470.015 4.66306C469.124 4.75265 468.34 4.81812 467.258 4.67685C466.621 4.5907 465.539 4.60448 464.648 4.5907C462.464 4.54935 460.3 4.51834 458.115 4.48388C458.115 4.45632 458.115 4.43219 458.115 4.40463C459.939 4.42186 461.764 4.45287 463.588 4.44942C466.685 4.44253 469.782 4.40118 472.858 4.39429C473.579 4.39084 474.279 4.48732 475.022 4.49766C477.928 4.53212 480.834 4.5528 483.761 4.57692C489.574 4.62516 495.386 4.68718 501.177 4.71474C506.99 4.74231 512.823 4.73542 518.657 4.7492C520.778 4.75265 522.942 4.80433 525.042 4.76643C526.484 4.74231 527.884 4.60448 529.603 4.50111C531.427 4.82501 534.142 4.69752 536.794 4.67339C539.403 4.64927 542.033 4.65961 544.643 4.65272C548.185 4.64238 551.749 4.6286 555.313 4.56313C552.873 4.43908 550.115 4.65272 547.74 4.28402C549.734 4.27713 551.346 4.16687 553.361 4.222C556.861 4.31503 560.51 4.22889 564.095 4.20132C566.874 4.18065 569.61 4.02559 572.432 4.21511C573.259 4.27024 574.404 4.17031 575.423 4.14274C575.423 4.11173 575.423 4.08072 575.423 4.04626C574.829 4.00491 574.213 3.96012 573.619 3.91877C573.619 3.90154 573.641 3.88431 573.641 3.86708C574.829 3.8533 576.038 3.84297 577.226 3.82918C577.226 3.79817 577.247 3.7706 577.247 3.73959C573.047 3.71202 568.889 3.51561 564.625 3.72236L564.668 3.72925C565.325 3.64311 565.962 3.55696 566.619 3.47082C566.598 3.4467 566.598 3.42258 566.577 3.39501C564.922 3.39501 563.268 3.40191 561.613 3.39501C557.052 3.37089 552.513 3.3192 547.952 3.31576C541.482 3.30887 534.991 3.33644 528.521 3.35022C526.569 3.63622 524.469 3.5225 522.072 3.34677C522.369 3.51561 522.517 3.59487 522.666 3.68101C522.475 3.69479 522.305 3.71892 522.157 3.71892C519.632 3.69825 517.087 3.71547 514.626 3.63966C511.932 3.55696 509.408 3.64656 506.799 3.68791C504.805 3.71892 502.726 3.62932 500.711 3.59487C500.711 3.56386 500.689 3.5294 500.689 3.49839C502.471 3.47082 504.274 3.44326 506.056 3.41569C506.056 3.39157 506.077 3.37089 506.077 3.34677C502.917 3.28819 499.756 3.23306 496.595 3.17448C496.553 3.15036 496.51 3.12969 496.468 3.10557C497.274 3.07456 498.101 3.01943 498.907 3.01943C503.829 3.01254 508.75 3.01942 513.693 3.02287C519.823 3.02631 525.954 3.02976 532.063 3.02976C532.785 3.02976 533.654 3.07455 533.697 2.85058C533.697 2.82301 534.736 2.77477 535.288 2.77477C536.476 2.77477 537.685 2.80923 538.873 2.81957C542.733 2.84713 546.594 2.88849 550.476 2.88849C551.834 2.88849 553.191 2.77133 554.549 2.70931C554.888 2.69553 555.355 2.66451 555.588 2.69207C557.646 2.90916 559.937 2.78511 562.08 2.85403C564.01 2.91605 565.389 2.71964 567.065 2.69552C569.674 2.65417 572.325 2.60249 574.935 2.60938C583.165 2.63005 591.396 2.6783 599.648 2.70931C601.684 2.7162 603.721 2.70585 605.736 2.67829C613.606 2.57836 621.433 2.64383 629.282 2.80923C636.728 2.96429 644.195 3.11935 651.747 2.96774C655.077 2.90227 658.471 2.98496 661.844 2.97118C665.959 2.95395 670.075 2.90915 674.211 2.87469C677.16 2.85057 680.108 2.82645 683.036 2.78855C684.075 2.77477 685.115 2.71963 686.154 2.68173C686.154 2.64727 686.154 2.60937 686.154 2.57491C683.142 2.51634 680.151 2.45775 677.139 2.39917C677.16 2.36816 677.16 2.3337 677.181 2.30269C685.094 2.28546 692.942 2.53356 700.855 2.58525C700.897 2.54735 700.918 2.506 700.961 2.46809C696.93 2.33371 692.921 2.19932 688.891 2.06838C688.891 2.04082 688.912 2.01325 688.912 1.98569C693.494 2.04082 698.097 2.09251 702.679 2.14764C702.7 2.10974 702.721 2.07528 702.743 2.03737C701.979 2.02359 701.215 2.01325 700.346 1.99946C700.282 1.85819 700.961 1.6859 698.967 1.72036C695.891 1.77549 692.709 1.66523 689.569 1.63766C688.594 1.63077 687.597 1.66523 686.557 1.62388C687.915 1.59287 689.273 1.56186 690.63 1.53084C690.609 1.51017 690.609 1.48605 690.588 1.46537C689.888 1.45848 689.188 1.44814 688.488 1.44125C688.445 1.41024 688.381 1.37923 688.339 1.34822C689.378 1.27241 690.418 1.1966 691.457 1.11735C691.479 1.08289 691.5 1.05189 691.521 1.01743C689.548 0.951958 687.554 0.886485 685.581 0.821015C685.603 0.776219 685.624 0.727982 685.645 0.683186C689.527 0.869257 693.388 0.955401 697.482 0.734871C696.93 0.624607 696.506 0.538464 696.103 0.455765C698.352 0.559137 700.558 0.166317 702.764 0.410967C702.764 0.44887 702.743 0.483331 702.743 0.521234C701.597 0.521234 700.452 0.521234 699.306 0.521234C699.285 0.555693 699.264 0.590145 699.243 0.624603C699.836 0.662506 700.43 0.731422 701.024 0.731422C704.079 0.738313 707.261 0.800338 709.976 0.528121C711.292 0.397182 712.479 0.22145 713.964 0.162872C718.525 -0.0232 723.043 0.135302 727.583 0.193881C729.259 0.214554 730.956 0.242121 732.61 0.214554C735.517 0.162867 738.423 0.0629407 741.329 0.000917455C741.775 -0.00942039 742.284 0.0698337 742.771 0.107737C742.368 0.231785 742.114 0.428196 741.541 0.466099C739.696 0.586701 737.702 0.631493 735.792 0.731421C733.332 0.86236 730.892 1.01053 728.453 1.1587C726.904 1.25518 725.483 1.25174 724.019 1.09323C722.195 0.900271 719.925 0.9933 719.395 1.25862C720.413 1.30686 721.453 1.35511 722.492 1.40335C722.471 1.42747 722.471 1.45504 722.45 1.47916C717.655 1.62043 712.84 1.76171 707.834 1.90988C708.152 1.95123 708.322 1.99258 708.491 1.99602C714.134 2.00636 719.777 2.02359 725.419 2.01325C726.247 2.01325 727.074 1.89954 728.113 1.82029C730.956 2.08561 734.117 1.91677 737.15 1.74448C739.908 1.58942 742.093 1.59975 744.066 2.02358C746.123 2.47153 748.881 2.56113 751.999 2.39228C753.187 2.32681 754.439 2.29925 755.669 2.26134C755.902 2.25445 756.305 2.25445 756.348 2.27513C757.26 2.59214 759.508 2.50255 760.527 2.70585C760.802 3.08489 760.972 3.44668 761.375 3.79815C761.524 3.92909 762.245 4.04281 762.733 4.15997C762.903 4.20132 763.327 4.23922 763.306 4.27023C763.115 4.51488 763.963 4.68372 764.409 4.88702C764.939 5.12478 765.533 5.12823 766.53 5.14201C766.976 5.14891 767.421 5.16958 767.888 5.18336C767.93 5.21437 767.972 5.24538 768.015 5.27639C764.345 5.53483 760.654 5.79671 756.857 6.06203C757.069 6.2481 757.26 6.41005 757.536 6.6547C751.405 6.60646 745.253 6.40661 739.42 6.84767C739.78 7.11644 740.82 7.21292 742.432 7.08198C743.196 7.01995 743.853 6.92692 744.617 6.87179C746.802 6.71673 748.817 6.91658 750.896 6.98894C752.678 7.05097 754.439 7.11644 756.199 7.19914C756.899 7.2336 757.536 7.31629 758.002 7.43C762.797 7.38176 767.569 7.33696 772.364 7.28872C772.427 7.33352 772.491 7.37487 772.555 7.41966C771.77 7.47135 771.006 7.52993 770.2 7.56783C769.054 7.62296 767.463 7.47135 767.039 7.83316C766.954 7.90208 765.724 7.9641 765.003 7.97444C763.454 7.99511 761.863 7.97788 760.315 7.98821C759.827 7.99166 759.381 8.0468 758.893 8.07781C759.106 8.17084 759.19 8.29489 759.572 8.35692C761.206 8.60501 763.157 8.72216 765.321 8.72905C766.127 8.7325 766.912 8.74974 767.697 8.76007C767.697 8.80142 767.718 8.84622 767.718 8.88757C765.003 8.94614 762.287 9.00127 758.978 9.07363C763.094 9.23214 766.679 9.432 768.948 10.0419C768.715 10.2349 767.866 10.3141 766.657 10.321C765.639 10.3279 764.621 10.3486 763.603 10.3624C763.603 10.3968 763.603 10.4278 763.581 10.4623C764.854 10.4933 766.127 10.5278 767.379 10.5588C767.379 10.5829 767.4 10.6036 767.4 10.6277C766.997 10.6621 766.594 10.6966 766.254 10.7242C767.082 11.2169 770.136 11.148 772.194 11.4236C770.985 11.4891 770.115 11.5339 769.245 11.5822C769.224 11.6097 769.182 11.6373 769.16 11.6649C770.433 11.7889 771.727 11.9129 773 12.037C772.958 12.0646 772.915 12.0921 772.851 12.1163C769.139 12.1852 765.3 12.0267 761.63 12.2127C761.566 12.2472 761.503 12.2816 761.439 12.3161C765.278 12.6676 769.097 13.019 772.936 13.374C772.915 13.3981 772.915 13.4222 772.894 13.4463C770.327 13.5152 767.76 13.5842 764.897 13.6634C767.357 13.9597 769.521 14.2147 771.77 14.4869C770.624 14.5283 769.457 14.5731 768.354 14.6144C768.142 14.8935 770.836 14.9487 769.691 15.3243C767.23 14.8143 764.303 14.7109 760.93 14.8281C758.702 14.9039 756.433 14.9315 754.184 14.9797C754.163 15.021 754.142 15.0589 754.12 15.1003C756.157 15.183 758.172 15.276 760.23 15.3415C762.203 15.4035 762.563 15.4759 762.266 15.8136C764.027 16.041 763.942 16.2064 762.012 16.4028C761.184 16.4889 760.315 16.5647 759.509 16.6509C759.212 16.6819 758.915 16.7233 758.745 16.7715C758.172 16.9438 757.663 17.1195 757.048 17.3228C757.79 17.3366 758.851 17.3538 760.399 17.3814C758.745 17.4951 757.536 17.5744 755.966 17.6846C756.624 17.8259 757.027 18.0016 757.748 18.0533C760.251 18.2291 761.46 18.4978 760.675 18.9802C760.654 18.9975 760.781 19.0181 760.802 19.0388C760.824 19.056 760.76 19.0767 760.696 19.1146C760.23 19.1318 759.657 19.1387 759.19 19.1766C758.787 19.2077 758.448 19.2766 758.087 19.3248C758.448 19.3937 758.787 19.504 759.212 19.5178C760.421 19.5591 761.672 19.5557 763.094 19.5764C761.672 20.0071 757.578 19.7038 757.281 20.3379C755.966 20.3482 754.417 20.3 754.078 20.6549C757.133 20.8168 760.145 20.7927 763.2 20.6893C763.921 20.6652 764.727 20.7169 765.512 20.7307C765.512 20.7686 765.491 20.8099 765.491 20.8478C762.775 20.9891 760.06 21.1304 757.281 21.2751C758.405 21.4819 759.445 21.6783 760.59 21.8919C760.23 21.9643 759.954 22.0229 759.678 22.078C760.781 22.7396 764.154 22.5397 767.336 22.5845C764.833 22.905 761.948 22.6293 760.378 22.9601C761.036 23.1496 761.587 23.2978 762.118 23.4494C761.248 23.5355 760.378 23.6182 759.169 23.7389C760.527 23.8009 761.566 23.8491 762.712 23.9042C762.224 23.9387 761.863 23.9663 761.29 24.0076C762.606 24.1351 763.709 24.2419 764.812 24.3487C764.748 24.3694 764.685 24.3866 764.621 24.4073C761.884 24.335 759.148 24.2626 756.39 24.1902C756.327 24.2247 756.284 24.2626 756.221 24.2971C757.43 24.4142 758.639 24.5279 759.827 24.6451C759.805 24.6554 759.763 24.6692 759.742 24.6795C758.13 24.5934 756.539 24.4797 754.884 24.4246C752.466 24.3453 750.005 24.2764 747.566 24.2661C745.953 24.2592 744.023 24.4797 742.75 24.3798C741.159 24.2592 739.696 24.204 738.105 24.2213C737.341 24.2281 736.62 24.3074 735.877 24.3522C735.92 24.4004 735.983 24.4487 736.026 24.4969C737.511 24.4969 738.974 24.4969 740.459 24.4969C740.481 24.5107 740.502 24.5279 740.523 24.5417C738.402 24.6761 736.302 24.807 734.117 24.9449C736.344 25.0758 738.593 25.2067 740.841 25.3411C740.82 25.3756 740.799 25.4066 740.799 25.4411C740.29 25.4617 739.759 25.4859 739.123 25.5134C739.314 25.572 739.505 25.6271 739.738 25.696C739.484 25.7029 739.293 25.7133 739.144 25.7098C737.893 25.6685 737.065 25.7856 736.089 25.9062C734.435 26.113 732.589 26.268 730.829 26.4507C730.171 26.5196 729.45 26.5851 728.898 26.6746C728.686 26.7091 728.729 26.8642 728.898 26.8814C730.913 27.0537 732.483 27.4258 735.262 27.3362C735.156 27.2639 735.05 27.195 734.859 27.0744C735.432 27.1123 735.814 27.126 736.132 27.1605C737.341 27.288 738.465 27.4534 739.759 27.5499C740.99 27.6429 740.926 27.8152 740.884 27.9703C740.841 28.146 740.459 28.3183 740.205 28.4975C741.202 28.556 741.965 28.5974 742.708 28.6422C742.644 28.6766 742.602 28.7111 742.538 28.7456C740.608 28.656 738.656 28.5698 736.726 28.4802C736.683 28.5078 736.62 28.5354 736.556 28.5629C736.938 28.5974 737.299 28.6353 737.68 28.6698C737.723 28.6973 737.744 28.7249 737.786 28.7559C736.874 28.7869 735.92 28.8558 735.029 28.842C732.144 28.7938 729.747 29.0384 727.138 29.1763C725.144 29.2831 722.959 29.321 720.859 29.3175C715.28 29.3107 709.701 29.2624 704.143 29.2349C702.212 29.2245 700.388 29.2038 698.458 29.1142C696.336 29.0143 693.918 29.0901 691.648 29.0936C683.884 29.1039 676.12 29.0936 668.357 29.1315C659.532 29.1728 650.686 29.2417 641.861 29.321C637.004 29.3658 632.188 29.4554 627.352 29.5312C626.121 29.5519 624.891 29.6449 623.682 29.638C621.179 29.6208 618.633 29.4864 616.173 29.5312C610.551 29.6346 605.057 29.3141 599.436 29.483C599.436 29.4519 599.414 29.4209 599.414 29.3899C601.705 29.3624 604.018 29.3313 606.309 29.3038C592.626 28.9868 578.923 29.2693 565.262 29.1556C567.234 28.9385 567.425 28.9385 569.695 29.1108C569.95 29.1315 570.268 29.1418 570.565 29.1384C576.547 29.0729 582.508 29.0006 588.469 28.9385C590.781 28.9144 593.093 28.9144 595.405 28.8937C595.935 28.8903 596.445 28.8351 596.975 28.8041C596.975 28.7731 596.975 28.7421 596.954 28.7111C595.723 28.6663 594.451 28.6387 593.263 28.5698C591.841 28.4871 590.759 28.5319 589.975 28.7662C588.893 28.4802 587.705 28.432 585.583 28.5733C583.165 28.7318 580.811 28.7042 577.841 28.4665C579.347 28.4458 580.492 28.4286 581.659 28.4113C581.659 28.3838 581.659 28.3596 581.638 28.3321C580.62 28.3114 579.602 28.2907 578.583 28.2735C578.583 28.2528 578.583 28.2356 578.583 28.2149C582.593 28.2149 586.581 28.2149 590.441 28.2149C590.717 28.27 591.014 28.3838 591.311 28.3838C593.56 28.3838 595.808 28.3631 598.142 28.2735C597.887 28.2425 597.654 28.2115 597.039 28.1357C605.969 28.1081 614.624 28.2838 623.152 27.9186C618.061 27.8876 612.948 27.8565 607.857 27.8255C607.836 27.7807 607.836 27.7325 607.815 27.6877C608.494 27.6567 609.172 27.6257 609.851 27.5947C609.851 27.5671 609.872 27.5395 609.872 27.512C608.197 27.512 606.521 27.512 604.866 27.5154C604.718 27.5154 604.463 27.5395 604.442 27.5637C603.593 28.084 601.26 27.736 599.648 27.8187C600.517 27.767 601.387 27.7187 602.278 27.667C602.257 27.6326 602.215 27.5947 602.193 27.5602C601.111 27.5602 600.008 27.5568 598.926 27.5602C590.993 27.5878 583.08 27.6188 575.147 27.6395C571.625 27.6498 568.104 27.6154 564.583 27.636C562.928 27.6464 561.273 27.7291 559.619 27.7807C559.661 27.8083 559.682 27.8324 559.725 27.86C559.385 27.8083 559.046 27.7084 558.728 27.7084C554.485 27.7222 550.264 27.7497 546.021 27.7773C546 27.8152 546 27.8497 545.979 27.8876C547.04 27.9048 548.143 27.9496 549.182 27.9324C552.364 27.8738 552.788 27.8876 555.61 28.3355C553.87 28.3734 552.322 28.401 550.773 28.4458C550.328 28.4596 549.925 28.525 549.14 28.6008C545.534 28.6456 541.461 28.6973 537.388 28.749C537.345 28.7766 537.303 28.8076 537.239 28.8352C537.664 28.9041 538.109 28.973 538.533 29.0384C538.47 29.0626 538.427 29.0832 538.364 29.1074C537.77 29.0522 537.218 28.9902 536.603 28.9489C536.03 28.911 535.372 28.8731 534.779 28.8799C533.018 28.9041 531.363 28.9523 529.496 28.8558C527.842 28.7697 525.869 28.8799 523.769 28.9041C525.89 28.749 527.863 28.5767 529.942 28.4665C532.169 28.3493 534.482 28.2804 536.794 28.208C539.106 28.1357 541.461 28.0805 544.07 28.0116C541.418 27.7015 527.566 27.8772 524.914 28.022C526.251 28.1184 527.163 28.1839 528.096 28.2494C527.884 28.4217 527.248 28.4527 523.748 28.4492C524.214 28.37 524.724 28.2873 525.551 28.1494C524.681 28.1322 524.236 28.1012 523.918 28.1253C521.521 28.3217 518.975 28.2459 516.493 28.2735C515.369 28.2838 514.053 28.339 513.608 28.0426C513.544 27.9944 512.569 27.9737 512.038 27.9772C511.868 27.9772 511.72 28.0978 511.423 28.2184C509.917 28.1253 508.305 28.0254 506.544 27.9151C506.735 27.8428 506.926 27.767 507.287 27.6291C505.59 27.6705 505.186 27.829 505.08 28.0599C504.317 28.0392 503.489 28.0185 502.662 27.9978C502.641 27.9772 502.641 27.9599 502.62 27.9392C503.129 27.9082 503.659 27.8772 504.168 27.8428C502.917 27.798 501.538 27.543 500.477 27.9082C500.371 27.9496 499.841 27.9737 499.523 27.9737C495.619 27.9772 491.716 27.9772 487.749 27.9151C490.189 27.8566 492.628 27.8014 495.068 27.7463C495.195 27.7428 495.344 27.7394 495.428 27.7497C497.083 27.9806 498.292 27.8497 499.48 27.6154C499.692 27.574 500.392 27.5912 500.859 27.605C503.108 27.6774 505.271 27.7187 506.862 27.3362C506.968 27.3087 507.435 27.3259 507.753 27.3225C507.18 27.5637 507.711 27.5947 511.232 27.5223C510.914 27.481 510.744 27.4534 510.214 27.3845C512.229 27.3845 513.947 27.3673 515.644 27.3879C518.19 27.4224 520.714 27.5051 523.239 27.5223C525.615 27.5361 527.99 27.4947 530.366 27.4672C530.663 27.4637 530.918 27.3983 531.172 27.2742C529.2 27.2501 527.227 27.2225 525.084 27.195C525.084 27.1571 525.169 27.095 525.063 27.0468C524.957 26.9951 524.681 26.9331 524.427 26.9228C524.151 26.9124 523.748 26.9434 523.493 26.9779C523.005 27.0399 522.602 27.1812 522.136 27.1846C518.784 27.2019 515.432 27.195 512.399 27.195C513.269 27.1054 514.372 26.9951 515.475 26.8848C515.369 26.8469 515.263 26.8125 515.156 26.7746C514.011 26.8125 512.462 26.5747 511.953 26.8917C510.829 26.8469 509.747 26.7987 508.665 26.7608C508.39 26.7505 507.902 26.7677 507.838 26.7953C507.011 27.1571 505.229 26.971 503.744 26.9951C504.105 26.9434 504.486 26.8917 504.953 26.8228C504.529 26.7987 504.211 26.7608 503.892 26.7608C501.686 26.7539 499.459 26.7574 497.253 26.7574C496.086 26.7574 494.877 26.6953 494.05 26.9331C493.901 26.9744 492.989 26.94 492.437 26.9331C491.228 26.9159 489.998 26.8814 488.789 26.8814C486.222 26.8814 483.634 26.8986 481.067 26.9055C479.201 26.9124 477.334 26.9124 475.467 26.9262C475.022 26.9296 474.597 26.9779 474.173 27.0054C473.791 27.0296 473.367 27.0847 473.07 27.0675C468.34 26.8469 463.609 27.064 458.879 27.0365C457.775 27.0296 456.651 27.0537 455.697 27.002C455.336 26.9744 454.975 26.9193 454.615 26.9193C452.006 26.9124 449.375 26.9124 446.766 26.9193C445.069 26.9228 443.351 26.9503 441.654 26.9572C440.296 26.9607 438.938 26.9607 437.581 26.9331C437.029 26.9228 436.541 26.8401 436.096 26.8435C432.702 26.8573 429.329 26.8642 425.935 26.8848C422.541 26.909 419.147 26.9503 415.753 26.9813C415.71 26.9469 415.668 26.909 415.625 26.8745C416.495 26.8332 417.344 26.7953 418.213 26.7539C418.213 26.7195 418.213 26.685 418.213 26.6505C416.813 26.6402 415.392 26.6161 413.992 26.6195C412.549 26.623 411.086 26.6299 409.686 26.685C408.286 26.7436 406.97 26.8676 405.613 26.9641C405.676 26.9296 405.761 26.8952 405.825 26.8607C405.422 26.809 404.998 26.7126 404.616 26.716C403.216 26.7298 401.816 26.7815 400.416 26.809C397.764 26.8573 395.112 26.8986 392.461 26.9365C392.121 26.94 391.761 26.9193 391.4 26.909C391.379 26.8814 391.358 26.8504 391.337 26.8228C392.546 26.7987 393.734 26.7505 394.943 26.7539C396.152 26.7574 397.191 26.7436 397.891 26.5368C398.04 26.4886 398.825 26.4438 398.888 26.4576C400.097 26.7091 401.582 26.5506 402.94 26.5506C404.934 26.5506 407.034 26.523 408.901 26.4714C410.619 26.4231 412.146 26.5265 413.716 26.4817C414.883 26.4472 416.05 26.3921 417.216 26.3714C419.698 26.3301 422.201 26.306 424.704 26.2784C425.341 26.2715 425.977 26.2784 426.614 26.2784C426.614 26.2474 426.614 26.2129 426.614 26.1819C424.726 26.1819 422.817 26.1785 420.929 26.1819C418.468 26.1888 415.859 26.2956 413.547 26.1923C408.646 25.9683 404.022 26.3197 399.249 26.2956C396.088 26.2784 392.927 26.3129 389.767 26.306C389.236 26.306 388.685 26.2198 388.155 26.175C388.197 26.1371 388.239 26.0992 388.282 26.0613C390.212 26.0337 392.121 26.0062 394.179 25.9752C394.009 25.92 393.797 25.858 393.521 25.7684C394.667 25.7305 395.6 25.6651 396.003 25.9338C396.088 25.9855 397.106 26.0165 397.7 26.0131C403.152 25.9924 408.583 25.9683 414.034 25.9373C417.238 25.92 420.441 25.8856 423.707 25.9097C423.156 25.9338 422.604 25.9579 422.053 25.9821C422.074 26.0062 422.074 26.0303 422.095 26.051C424.174 26.0269 426.232 25.9993 428.311 25.9752C428.29 25.9373 428.289 25.9028 428.268 25.8649C427.483 25.8752 426.699 25.8821 425.892 25.8925C425.892 25.8684 425.892 25.8408 425.871 25.8167C430.093 25.7684 434.335 25.7167 438.557 25.6685C438.578 25.6478 438.599 25.6306 438.62 25.6099C438.132 25.5617 437.666 25.51 437.072 25.448C437.475 25.4238 437.835 25.4032 438.196 25.3825C438.196 25.3549 438.175 25.3274 438.175 25.2963C435.714 25.2963 433.253 25.2963 430.581 25.2963C431.068 25.3446 431.45 25.379 432.002 25.4342C429.477 25.5169 427.186 25.603 424.853 25.6719C422.498 25.7409 420.144 25.796 417.959 25.5307C418.235 25.4996 418.447 25.4755 418.659 25.4514C418.638 25.4342 418.595 25.4169 418.574 25.3997C416.368 25.4169 414.162 25.4376 411.956 25.4549C408.54 25.4824 405.104 25.4997 401.688 25.5341C400.373 25.5479 399.058 25.603 397.594 25.572C398.825 25.4962 400.055 25.4204 401.158 25.3549C399.525 25.1792 397.446 25.2516 395.834 25.4893C395.24 25.5755 394.094 25.5479 393.182 25.5686C393.161 25.5341 393.14 25.4962 393.118 25.4618C393.691 25.4411 394.264 25.417 395.134 25.3859C394.603 25.2688 394.264 25.193 393.988 25.1344C396.406 25.1344 398.91 25.1344 401.625 25.1344C400.798 25.0379 400.097 24.9587 399.397 24.8829C399.249 24.8656 398.91 24.8553 398.91 24.8622C397.997 25.224 396.534 24.9208 395.367 24.9414C392.588 24.9897 389.746 24.9311 387.009 24.9966C383 25.0931 379.012 24.9759 375.003 25.0414C371.439 25.0999 367.833 25.0483 364.226 25.0483C364.014 25.0483 363.802 25.0758 363.081 25.1241C370.696 25.3618 377.972 24.9414 385.503 25.3136C384.676 25.3825 384.23 25.417 383.636 25.4652C384.803 25.4652 385.864 25.4652 386.924 25.4652C386.988 25.5031 387.073 25.541 387.136 25.5789C386.542 25.6203 385.758 25.7236 385.376 25.6892C382.279 25.4101 379.521 25.6168 376.721 25.827C375.766 25.8994 374.812 25.9614 373.645 26.0406C373.963 25.6513 377.697 25.9648 376.657 25.4445C377.909 25.4238 378.906 25.4101 379.903 25.3928C379.903 25.3618 379.882 25.3343 379.882 25.3032C367.345 25.3584 354.808 25.4135 341.719 25.4721C342.589 25.5582 342.992 25.5961 343.416 25.6409C343.268 25.6651 343.162 25.6961 343.013 25.6995C341.592 25.734 340.235 25.7443 339.513 26.0475C339.322 26.1268 337.731 26.1027 336.777 26.1233C336.734 26.0889 336.692 26.0579 336.628 26.0234C337.265 25.9855 337.901 25.9442 338.538 25.9063C338.538 25.8856 338.516 25.8649 338.516 25.8442C332.789 25.8442 327.061 25.8442 321.334 25.8442C321.313 25.8373 321.291 25.8339 321.249 25.827C321.991 25.8063 322.713 25.7822 323.455 25.7615C323.264 25.3791 323.031 25.3515 318.725 25.1758C319.573 25.1654 320.443 25.1551 321.291 25.1447C321.291 25.1103 321.291 25.0793 321.27 25.0448C318.258 25.0448 315.267 25.0448 312.255 25.0448C309.264 25.0448 306.294 25.0448 303.303 25.0448C303.303 25.0827 303.303 25.1241 303.303 25.162C307.821 25.162 312.339 25.162 316.879 25.162C316.603 25.317 316.625 25.3274 312.827 25.4135C311.258 25.448 309.624 25.4204 308.012 25.448C311.639 25.7546 315.797 25.4307 319.722 25.7994C318.979 25.8408 318.364 25.9063 317.728 25.9063C314.185 25.92 310.664 25.9338 307.121 25.9269C300.1 25.9097 293.078 25.8649 286.057 25.858C281.687 25.8546 277.317 25.9063 272.947 25.9028C271.738 25.9028 270.529 25.7994 268.917 25.7236C269.765 25.6926 270.317 25.6513 270.826 25.6547C272.777 25.6651 274.708 25.6961 276.659 25.703C277.614 25.7064 278.696 25.7615 279.226 25.5203C279.353 25.4583 280.372 25.4514 280.987 25.3618C278.123 25.3308 275.259 25.2998 272.374 25.2688C272.353 25.3032 272.332 25.3377 272.311 25.3722C273.202 25.3928 274.093 25.4135 275.005 25.4342C273.647 25.5824 272.438 25.5617 271.229 25.4238C270.55 25.348 269.638 25.3101 268.811 25.3032C266.138 25.2757 263.444 25.2619 260.75 25.255C258.183 25.2481 255.616 25.255 252.625 25.255C253.283 25.286 253.601 25.2998 253.919 25.317C255.425 25.3963 256.931 25.5134 258.48 25.5513C259.859 25.5858 261.322 25.5307 262.722 25.5134C262.595 25.6582 261.895 25.703 260.75 25.6788C258.989 25.6409 257.207 25.5996 255.446 25.6099C252.922 25.6272 250.398 25.6995 247.873 25.7305C244.288 25.7719 240.619 25.7167 237.161 25.8546C234.552 25.9579 232.43 25.6478 230.012 25.796C230.012 25.7615 230.012 25.7271 230.012 25.6926C232.791 25.6823 235.591 25.6857 238.37 25.6582C239.706 25.6444 241.043 25.5789 242.379 25.5376C242.506 25.572 242.655 25.634 242.782 25.634C244.67 25.6409 246.579 25.6513 248.467 25.6237C248.807 25.6203 249.061 25.4445 249.358 25.3515C249.231 25.3377 249.082 25.3239 248.955 25.3101C249.549 25.2895 250.164 25.2653 250.758 25.2447C250.737 25.2274 250.716 25.2102 250.695 25.193C249.082 25.2102 247.492 25.2274 245.667 25.2481C246.155 25.3722 246.41 25.4376 246.516 25.4652C245.37 25.4859 243.991 25.5134 242.613 25.541ZM109.65 28.2597C110.477 28.3459 111.262 28.4561 112.174 28.5113C112.535 28.5319 113.15 28.4286 113.638 28.3838C113.829 28.4527 113.935 28.5561 114.253 28.5802C115.568 28.687 116.968 28.7973 118.538 28.6215C117.35 28.4734 115.992 28.4527 114.826 28.3252C113.511 28.1839 111.389 28.277 109.607 28.2701C107.019 27.9531 104.177 28.1391 101.419 28.1426C102.671 28.2459 104.007 28.2838 105.28 28.3597C106.447 28.4286 107.592 28.6319 108.462 28.2873C108.547 28.2528 109.247 28.2666 109.65 28.2597ZM233.13 27.133C233.152 27.1433 233.173 27.1536 233.215 27.1674C230.924 27.1192 228.633 27.0606 226.342 27.0227C223.839 26.9813 221.336 26.9503 218.833 26.9331C216.266 26.9193 213.699 26.9297 211.154 26.9262C208.629 26.9228 206.105 26.9159 203.602 26.9124C201.184 26.909 198.765 26.9124 196.368 26.9124C196.347 26.9503 196.347 26.9917 196.326 27.0296C197.853 27.0985 199.381 27.2088 200.95 27.2191C202.584 27.2329 204.238 27.1536 206.02 27.1088C205.978 27.2122 205.935 27.2983 205.893 27.381C210.348 27.7291 225.282 27.8566 229.376 27.5706C226.639 27.5361 223.903 27.5051 221.209 27.4706C222.078 27.2363 219.872 27.3466 219.49 27.1536C220.424 27.1812 221.187 27.2019 221.93 27.226C223.033 27.2605 224.136 27.3121 225.26 27.3294C226.851 27.3535 228.463 27.3466 230.054 27.3707C231.667 27.3983 233.258 27.4603 234.87 27.4879C235.867 27.5051 236.482 27.45 235.591 27.2605C236.121 27.2225 236.63 27.1812 237.14 27.1433C237.097 27.1088 237.076 27.0778 237.034 27.0434C235.697 27.0778 234.424 27.1054 233.13 27.133ZM74.3302 26.9745C77.4273 26.5506 81.2032 26.9228 84.3851 26.6437C83.6002 26.5989 82.8154 26.592 82.0093 26.5851C75.6878 26.5093 69.3664 26.4335 63.0449 26.3577C62.7691 26.3542 62.3237 26.3508 62.2388 26.3198C61.666 26.1302 61.1145 26.1406 60.3084 26.2853C60.0751 26.3267 59.4175 26.2956 58.972 26.2922C56.2567 26.2577 53.5415 26.244 50.8475 26.1785C49.2565 26.1406 47.6655 26.0475 46.2018 25.9304C44.229 25.7719 42.3198 25.5962 40.0501 25.7202C40.7289 25.7684 41.4501 25.765 42.1501 25.7926C42.7441 25.8132 43.3381 25.858 43.8472 25.9166C44.3351 25.9717 44.6533 26.0854 45.1624 26.1234C46.3291 26.2026 47.5594 26.2577 48.7686 26.3129C51.1869 26.4266 53.6051 26.5437 56.0658 26.6368C58.569 26.7332 61.3054 26.7195 63.554 26.9021C67.139 27.1984 70.7028 27.2432 74.4787 27.1743C74.6484 27.1709 74.7757 27.1467 75.0302 27.1226C74.8181 27.064 74.606 27.0227 74.3302 26.9745ZM486.137 5.54863C486.137 5.52451 486.116 5.50039 486.116 5.47627C484.101 5.46248 482.086 5.43147 480.07 5.43147C471.797 5.43147 463.545 5.4418 455.272 5.44525C451.433 5.44525 447.508 5.37978 444.199 5.80706C444.199 5.80706 444.305 5.82429 444.411 5.82429C445.79 5.84151 446.914 5.69335 448.081 5.63822C450.139 5.53829 452.621 5.58653 454.721 5.69679C455.421 5.73469 456.291 5.82084 457.139 5.82773C459.048 5.84152 460.957 5.83462 462.888 5.82773C463.206 5.82773 463.503 5.78982 464.055 5.75881C463.503 5.68645 463.142 5.63821 462.421 5.54173C465.264 5.56929 467.682 5.59341 470.079 5.61754C470.079 5.6451 470.079 5.67267 470.079 5.70024C468.827 5.71402 467.576 5.72781 466.324 5.74504C472.328 5.81395 478.31 6.09306 484.377 5.74159C483.57 5.71402 482.743 5.68646 481.937 5.65889C481.937 5.64166 481.937 5.62099 481.958 5.60376C483.337 5.58309 484.737 5.56585 486.137 5.54863ZM256.974 27.6464C256.146 27.605 255.531 27.574 254.895 27.5464C253.24 27.4741 251.628 27.4121 250.419 27.1467C249.804 27.0089 248.701 26.8056 247.534 26.9641C246.749 27.0709 246.452 27.2811 245.943 27.4534C245.498 27.3879 244.861 27.2915 243.885 27.1433C242.209 27.1261 239.961 27.1054 237.712 27.0847C237.67 27.1157 237.627 27.1467 237.585 27.1777C238.137 27.2398 238.667 27.2983 239.622 27.4017C238.476 27.4155 237.755 27.4224 236.376 27.4396C237.585 27.6498 238.412 27.8014 239.388 27.9737C240.279 27.7876 241.34 27.8014 242.591 27.9737C243.079 28.0426 243.97 28.0564 244.649 28.0461C246.579 28.0185 248.51 27.9634 250.419 27.9186C250.504 27.9151 250.589 27.891 250.737 27.8704C250.546 27.8256 250.355 27.7773 250.143 27.7325C252.201 27.4327 254.471 27.7325 256.974 27.6464ZM496.85 5.92076C496.871 5.95522 496.892 5.98968 496.913 6.02414C498.207 6.03448 499.501 6.0517 500.795 6.05859C503.85 6.06893 506.968 6.14818 509.917 6.05859C511.762 6.00346 513.375 6.05515 515.114 6.07238C516.938 6.08961 519.039 6.12062 520.523 5.98279C521.711 5.87253 522.624 5.80706 523.896 5.82773C524.766 5.84151 525.678 5.83118 526.612 5.83118C526.527 5.78983 526.505 5.77604 526.463 5.7726C526.251 5.75537 526.039 5.73814 525.805 5.73125C523.048 5.64166 520.396 5.71058 517.766 5.88286C517.023 5.9311 515.941 5.82429 515.05 5.76571C514.944 5.75882 515.093 5.62099 515.178 5.46248C514.075 5.51761 512.908 5.51761 512.208 5.61753C511.02 5.78638 509.132 5.86908 507.329 5.71746C508.793 5.6899 510.002 5.66578 511.211 5.64511C511.19 5.61754 511.169 5.58653 511.169 5.55896C508.814 5.55896 506.459 5.55551 504.105 5.55896C503.447 5.55896 502.789 5.60375 502.153 5.58997C501.029 5.56585 499.735 5.41769 499.395 5.77605C499.353 5.8174 498.568 5.83806 498.123 5.86563C497.698 5.8863 497.274 5.90009 496.85 5.92076ZM429.435 7.4886C429.435 7.51272 429.414 7.54029 429.414 7.56441C430.39 7.57819 431.365 7.59197 432.341 7.60576C432.341 7.64021 432.341 7.67123 432.341 7.70568C430.92 7.70568 429.477 7.72636 428.056 7.70224C424.853 7.64366 424.874 7.63332 424.238 7.80905C431.217 7.80905 438.366 7.80905 445.493 7.80905C445.493 7.77115 445.493 7.73325 445.493 7.6919C445.154 7.69534 444.814 7.70913 444.496 7.70224C442.672 7.67467 440.593 7.7298 439.108 7.59197C437.602 7.45069 436.605 7.47481 435.332 7.59197C434.823 7.63676 434.272 7.66778 433.741 7.70568C433.572 7.66434 433.402 7.62298 433.232 7.58508C433.699 7.56785 434.187 7.55062 434.653 7.5334C434.526 7.50238 434.399 7.47137 434.272 7.44035C432.659 7.45758 431.047 7.47137 429.435 7.4886ZM728.262 0.552245C728.283 0.510895 728.283 0.46954 728.304 0.428191C726.925 0.383395 725.547 0.286919 724.189 0.304148C720.519 0.352389 716.849 0.44542 713.179 0.524673C712.628 0.538455 712.119 0.590145 711.588 0.624603C711.61 0.645276 711.631 0.66595 711.673 0.686624C717.189 0.645274 722.725 0.600486 728.262 0.552245ZM709.234 1.43091C707.325 1.29308 705.776 1.0312 703.379 1.08634C701.321 1.13113 699.158 0.965736 696.782 1.1208C698.394 1.17593 699.964 1.15525 700.94 1.2793C703.591 1.61699 706.349 1.52739 709.234 1.43091ZM506.099 24.6933C506.077 24.7278 506.056 24.7588 506.014 24.7933C506.735 24.8381 507.456 24.876 508.156 24.9311C508.665 24.969 509.132 25.0689 509.62 25.0689C511.572 25.0689 513.544 25.0379 515.496 25.0172C516.005 25.0103 516.535 25 517.044 24.9931C517.044 24.9483 517.044 24.9035 517.044 24.8587C513.502 24.6692 509.811 24.683 506.099 24.6933ZM452.218 25.796C452.239 25.8546 452.26 25.9097 452.281 25.9683C458.73 25.9338 465.2 25.8959 471.649 25.8614C471.649 25.8408 471.649 25.8201 471.628 25.7994C465.158 25.796 458.688 25.796 452.218 25.796ZM100.231 3.0918C100.21 3.05045 100.189 3.0091 100.146 2.9712C95.5643 2.97465 90.9611 2.79203 86.4004 2.99877C86.4004 3.02634 86.4004 3.05735 86.4004 3.08492C89.3277 3.08492 92.2551 3.08492 95.1825 3.08492C95.1825 3.10215 95.1825 3.11592 95.1825 3.13315C94.631 3.14349 94.0794 3.15039 93.5279 3.16072C93.5491 3.19174 93.5703 3.22619 93.6128 3.25721C95.8189 3.20552 98.0251 3.14694 100.231 3.0918ZM100.825 3.10214C100.889 3.16416 100.974 3.22274 101.037 3.28477C103.307 3.24686 105.556 3.20551 107.825 3.1745C108.228 3.16761 108.653 3.19862 109.077 3.20207C110.795 3.20552 112.514 3.20207 114.232 3.20207C110.435 3.08491 106.616 3.02634 102.798 2.98844C102.14 2.98154 101.483 3.06079 100.825 3.10214ZM41.7047 24.4143C44.9078 24.528 48.0049 24.5693 51.5899 24.3936C49.2777 24.2971 47.4958 24.2213 45.7139 24.1489C45.3745 24.1351 44.9715 24.1351 44.6533 24.1558C43.7411 24.2282 42.8502 24.3143 41.7047 24.4143ZM710.485 1.13458C710.464 1.17593 710.443 1.21728 710.422 1.25862C712.076 1.28964 713.731 1.3172 715.831 1.35511C715.555 1.13113 715.64 0.89338 715.067 0.824464C714.283 0.727983 712.904 0.669399 712.055 0.903711C712.373 0.96918 712.67 1.03466 713.243 1.1587C712.034 1.14837 711.27 1.14147 710.485 1.13458ZM258.416 27.0434C258.459 26.9986 258.48 26.9538 258.522 26.9055C256.995 26.8401 255.468 26.7746 253.94 26.7091C253.898 26.7332 253.877 26.7574 253.834 26.7815C254.449 26.8091 255.086 26.8366 255.722 26.8607C255.701 26.8883 255.701 26.9193 255.68 26.9469C254.937 26.9538 254.195 26.94 253.495 26.971C252.731 27.002 252.01 27.0709 251.267 27.1226C251.989 27.1571 252.752 27.2363 253.452 27.2225C255.107 27.1881 256.762 27.1054 258.416 27.0434ZM325.195 7.23361C325.046 7.082 324.982 6.9993 324.898 6.9166C324.282 6.93728 323.519 6.92694 323.116 6.98896C322.5 7.082 323.307 7.40246 324.155 7.39212C326.658 7.368 329.161 7.31631 331.664 7.27152C331.643 7.22328 331.622 7.17848 331.58 7.13024C329.374 7.16814 327.189 7.2026 325.195 7.23361ZM225.048 4.09452C220.636 3.98426 216.224 3.83609 211.833 4.09452C216.245 4.09452 220.636 4.09452 225.048 4.09452ZM418.659 7.75047C420.229 7.92621 422.88 7.90553 423.326 7.69879C423.092 7.64021 422.859 7.57819 422.435 7.47481C423.729 7.47481 424.747 7.47481 425.765 7.47481C423.092 7.29908 419.995 7.41968 418.659 7.75047ZM359.072 8.03303C359.072 7.98823 359.05 7.94345 359.05 7.89865C355.678 7.96412 352.241 7.71602 348.932 8.03303C352.326 8.03303 355.699 8.03303 359.072 8.03303ZM210.369 25.5824C210.39 25.5513 210.411 25.5203 210.432 25.4893C208.99 25.4376 207.314 25.4514 206.126 25.3205C204.366 25.1275 203.22 25.1861 201.714 25.4893C204.747 25.6237 207.59 25.4997 210.369 25.5824ZM182.686 25.8994C186.313 25.9924 190.047 26.2715 193.505 25.7684C191.914 25.6099 191.638 25.6237 190.98 25.7512C190.598 25.8236 189.941 25.889 189.389 25.8925C187.162 25.9063 184.913 25.8994 182.686 25.8994ZM750.557 7.80215C750.578 7.83661 750.578 7.86761 750.599 7.90207C751.002 7.90896 751.426 7.91931 751.829 7.91586C753.696 7.90897 755.563 7.90208 757.408 7.8883C757.918 7.88485 758.427 7.84694 758.936 7.82626C758.469 7.76769 758.002 7.65053 757.578 7.65742C755.224 7.68844 752.89 7.75046 750.557 7.80215ZM425.405 5.64511C425.341 5.61065 425.277 5.57619 425.235 5.54173C422.201 5.54173 419.168 5.54173 416.134 5.54173C417.938 5.65889 419.741 5.72436 421.544 5.76571C422.477 5.78639 423.432 5.77604 424.365 5.75881C424.726 5.75192 425.044 5.68301 425.405 5.64511ZM550.073 26.7815C553.043 26.8952 555.44 26.5265 558.07 26.7022C558.367 26.7229 558.876 26.6402 559.279 26.6057C556.204 26.5609 553.107 26.3576 550.073 26.7815ZM469.018 25.4996C469.018 25.5238 469.018 25.5479 469.018 25.572C473.24 25.572 477.44 25.572 481.661 25.572C481.661 25.5479 481.64 25.5238 481.64 25.4996C477.419 25.4996 473.219 25.4996 469.018 25.4996ZM461.318 6.22744C458.285 6.24123 455.569 5.84496 452.43 6.04482C455.251 6.27913 458.327 6.21366 461.318 6.22744ZM257.207 27.8841C257.186 27.8359 257.186 27.7877 257.165 27.7394C255.892 27.7394 254.598 27.7256 253.325 27.7463C252.922 27.7532 252.243 27.8566 252.264 27.9082C252.307 28.0082 252.625 28.1322 253.071 28.1874C253.516 28.2425 254.237 28.2253 254.852 28.2391C254.895 28.2184 254.916 28.1977 254.958 28.177C254.577 28.1322 254.216 28.0909 253.707 28.0289C255.001 27.9737 256.104 27.9289 257.207 27.8841ZM340.68 7.90209C343.056 8.12951 345.092 8.14674 347.786 7.99513C346.832 7.8952 346.28 7.78839 345.75 7.79183C344.201 7.80217 342.674 7.85729 340.68 7.90209ZM263.295 26.3301C261.492 26.1371 253.558 26.0854 250.589 26.2267C254.874 26.2612 258.904 26.2956 263.295 26.3301ZM560.17 24.8415C558.94 24.7829 557.604 24.7002 556.225 24.6623C554.761 24.621 553.255 24.6244 551.749 24.6106C551.728 24.6451 551.728 24.683 551.706 24.7175C553.276 24.7312 554.846 24.745 556.416 24.7588C556.416 24.7898 556.416 24.8174 556.416 24.8484C556.225 24.8794 556.034 24.907 555.822 24.9414C559.173 25.031 559.173 25.031 560.17 24.8415ZM555.419 27.3018C555.44 27.2742 555.461 27.2432 555.504 27.2156C553.87 27.0709 549.352 27.1226 548.164 27.3707C550.837 27.3431 553.128 27.3225 555.419 27.3018ZM550.582 26.5437C549.288 26.5437 548.334 26.5437 547.252 26.5437C547.506 26.6092 547.846 26.6609 547.782 26.6815C546.764 27.0709 544.388 26.7953 542.797 26.9606C544.643 27.2949 546.255 26.8607 547.421 26.9434C548.567 26.8021 549.394 26.6953 550.582 26.5437ZM298.53 25.1068C298.551 25.0689 298.572 25.0276 298.594 24.9897C297.703 24.9897 296.833 24.9897 295.942 24.9897C293.969 24.9862 291.996 24.9724 290.002 24.9793C289.684 24.9793 289.366 25.0689 289.069 25.1172C289.472 25.1379 289.875 25.1826 290.257 25.1758C291.105 25.1654 291.954 25.1137 292.802 25.1068C294.712 25.1 296.621 25.1068 298.53 25.1068ZM280.181 25.0758C280.138 25.0999 280.117 25.1241 280.075 25.1482C282.493 25.1758 284.911 25.2033 287.351 25.2309C287.435 25.2068 287.499 25.1792 287.584 25.1551C287.287 25.0999 286.99 24.9966 286.693 24.9966C284.508 25.0138 282.344 25.0483 280.181 25.0758ZM265.841 4.79746C265.862 4.82503 265.862 4.84914 265.883 4.8767C268.344 4.78022 271.059 5.10757 273.329 4.66996C270.826 4.71131 268.344 4.75266 265.841 4.79746ZM496.51 5.78982C494.58 5.78982 492.756 5.78982 490.953 5.78982C492.947 6.05515 495.216 6.03103 496.51 5.78982ZM445.599 5.57275C445.578 5.54518 445.578 5.52106 445.557 5.49349C443.436 5.49349 441.293 5.49349 439.172 5.49349C439.172 5.52106 439.193 5.54518 439.193 5.57275C441.335 5.57275 443.478 5.57275 445.599 5.57275ZM119.874 28.5285C125.666 28.9523 125.666 28.9523 126.09 28.6767C123.99 28.625 121.932 28.5767 119.874 28.5285ZM226.915 4.0256C226.915 4.03249 226.936 4.03594 226.936 4.04283C229.736 4.04283 232.536 4.04283 235.358 4.04283C235.336 4.00149 235.336 3.96013 235.315 3.91878C232.515 3.95669 229.715 3.99114 226.915 4.0256ZM176.322 25.7512C178.401 26.0096 181.986 25.92 182.262 25.6719C180.268 25.6995 178.295 25.7236 176.322 25.7512ZM586.75 24.6795C586.75 24.7106 586.75 24.7416 586.75 24.7726C589.084 24.7243 591.544 24.8415 593.793 24.6589C593.772 24.6313 593.75 24.6003 593.75 24.5727C591.417 24.6072 589.084 24.6416 586.75 24.6795ZM37.9924 22.9498C37.8863 23.0015 37.7803 23.0532 37.6742 23.1049C40.0713 23.029 41.344 23.5631 43.9532 23.3633C41.9592 23.2255 39.9864 23.0876 37.9924 22.9498ZM412.189 7.685C410.258 7.72635 408.668 7.76081 407.034 7.79527C408.392 8.04681 411.043 8.01924 412.189 7.685ZM455.506 7.26118C453.787 7.19571 452.09 7.13368 450.181 7.06131C450.903 7.33009 453.321 7.42657 455.506 7.26118ZM453.236 7.80905C451.56 7.55407 449.821 7.57819 448.654 7.80905C450.224 7.80905 451.73 7.80905 453.236 7.80905ZM319.934 7.09923C317.218 6.80979 316.731 6.84425 316.285 7.29564C317.409 7.23706 318.491 7.17848 319.934 7.09923ZM31.2255 13.6497C31.2467 13.629 31.2679 13.6083 31.2891 13.5876C29.9527 13.5497 28.6163 13.5153 26.9404 13.467C27.3011 13.6152 27.492 13.6944 27.6193 13.753C28.9133 13.7151 30.0588 13.6807 31.2255 13.6497ZM405.592 7.8504C403.682 7.71257 401.773 7.59197 399.482 7.8504C401.795 7.8504 403.682 7.8504 405.592 7.8504ZM199.847 25.9166C197.662 25.8994 195.944 25.8856 194.226 25.8718C195.923 26.1337 197.662 26.0648 199.847 25.9166ZM537.897 24.714C537.897 24.6761 537.897 24.6382 537.897 24.6037C536.285 24.6382 534.694 24.6727 533.081 24.7071C533.103 24.7485 533.145 24.7864 533.166 24.8277C534.736 24.7898 536.327 24.7519 537.897 24.714ZM526.548 24.8105C526.527 24.8518 526.484 24.8932 526.463 24.9311C528.096 24.9173 529.73 24.9035 531.363 24.8863C531.342 24.8415 531.342 24.7933 531.321 24.7485C529.751 24.7691 528.16 24.7898 526.548 24.8105ZM468.361 6.43074C467.321 6.19298 464.924 6.16887 463.418 6.36872C465.2 6.39284 466.558 6.41007 468.361 6.43074ZM63.4904 6.56514C62.1115 6.58237 60.966 6.5996 59.3963 6.62027C61.5176 6.88904 61.8994 6.88215 63.4904 6.56514ZM236.164 27.829C236.185 27.7945 236.185 27.7601 236.206 27.7222C234.488 27.705 232.749 27.6877 231.03 27.6705C231.009 27.7015 231.009 27.736 230.988 27.767C232.706 27.7876 234.424 27.8083 236.164 27.829ZM546.318 24.5934C546.297 24.6313 546.297 24.6658 546.276 24.7037C547.57 24.7037 548.864 24.7037 550.158 24.7037C550.158 24.6658 550.158 24.6313 550.158 24.5934C548.885 24.5934 547.612 24.5934 546.318 24.5934ZM135.317 29.2211C135.339 29.1797 135.36 29.1384 135.36 29.097C134.108 29.1039 132.92 28.9041 131.648 29.066C131.626 29.1074 131.626 29.1487 131.605 29.1901C132.835 29.2004 134.087 29.2108 135.317 29.2211ZM100.274 28.1632C99.3403 27.8876 98.2796 27.9289 97.1977 27.9978C97.1765 28.0392 97.1553 28.084 97.1341 28.1253C98.1735 28.1391 99.2342 28.1495 100.274 28.1632ZM733.756 28.494C732.547 28.4837 731.317 28.4699 730.107 28.4596C730.107 28.4975 730.086 28.5319 730.086 28.5698C731.232 28.7456 732.462 28.6732 733.756 28.494ZM521.436 27.9944C521.436 27.9703 521.457 27.9496 521.457 27.9255C519.357 27.9427 517.257 27.9599 515.178 27.9806C515.199 28.0116 515.199 28.0426 515.22 28.0736C517.278 28.0461 519.357 28.0185 521.436 27.9944ZM428.205 26.4507C429.138 26.3714 430.071 26.2887 431.005 26.2095C429.796 26.1922 428.332 26.0475 428.205 26.4507ZM134.13 28.942C134.172 28.8903 134.193 28.8386 134.236 28.7904C133.026 28.7594 131.817 28.7284 130.608 28.7008C130.587 28.7318 130.566 28.7594 130.544 28.7904C131.732 28.8386 132.92 28.8903 134.13 28.942ZM490.762 25.5203C490.783 25.5617 490.825 25.603 490.846 25.6444C492.586 25.603 494.325 25.5582 496.086 25.5169C496.065 25.4928 496.065 25.4652 496.044 25.4411C494.283 25.4652 492.522 25.4928 490.762 25.5203ZM472.391 5.11445C472.391 5.17303 472.391 5.23506 472.412 5.29364C473.409 5.27986 474.406 5.26263 475.403 5.24884C475.382 5.21439 475.382 5.18337 475.361 5.14891C474.364 5.13513 473.388 5.12479 472.391 5.11445ZM534.906 27.3604C534.927 27.4017 534.927 27.4431 534.948 27.4844C536.369 27.4706 537.791 27.4534 539.233 27.4396C539.212 27.4017 539.212 27.3638 539.191 27.3259C537.77 27.3397 536.327 27.35 534.906 27.3604ZM506.268 25.0827C506.205 25.0379 506.141 24.9966 506.056 24.9518C504.783 25.0172 503.489 25.0827 502.217 25.1482C502.28 25.1895 502.344 25.2274 502.408 25.2688C503.702 25.2068 504.996 25.1447 506.268 25.0827ZM624.934 27.8945C624.934 27.9082 624.934 27.922 624.934 27.9358C626.694 27.9358 628.434 27.9358 630.194 27.9358C630.194 27.9048 630.173 27.8738 630.173 27.8428C628.434 27.86 626.694 27.8772 624.934 27.8945ZM433.868 4.85947C433.847 4.81812 433.826 4.77333 433.826 4.73198C432.575 4.74232 431.323 4.75265 430.093 4.76299C430.093 4.794 430.114 4.82846 430.114 4.85947C431.365 4.85947 432.617 4.85947 433.868 4.85947ZM544.515 26.7608C544.536 26.7229 544.536 26.685 544.558 26.6471C543.2 26.623 541.842 26.6023 540.506 26.5782C540.485 26.6264 540.464 26.6781 540.442 26.7263C541.779 26.7401 543.158 26.7505 544.515 26.7608ZM50.5717 6.49623C51.7172 6.3963 52.5021 6.33084 53.5627 6.24125C51.5263 6.09997 51.3566 6.11375 50.5717 6.49623Z" fill="url(#paint0_linear_6249_14202)"/>
<defs>
<linearGradient id="paint0_linear_6249_14202" x1="15.1033" y1="30.0039" x2="277.527" y2="-342.947" gradientUnits="userSpaceOnUse">
<stop stop-color="#533CA3"/>
<stop offset="0.294518" stop-color="#BF5AB8"/>
<stop offset="0.682384" stop-color="#ED641F"/>
<stop offset="1" stop-color="#FFE322"/>
</linearGradient>
</defs>
</svg>
